<svg width="119" height="75" viewBox="0 0 119 75" fill="none" xmlns="http://www.w3.org/2000/svg">
<path d="M77.7364 60C77.203 60 76.7444 59.8133 76.3604 59.44C75.987 59.056 75.8004 58.5973 75.8004 58.064V52.656C75.8004 52.1227 75.987 51.6693 76.3604 51.296C76.7444 50.912 77.203 50.72 77.7364 50.72H83.3044C83.8484 50.72 84.307 50.912 84.6804 51.296C85.0644 51.6693 85.2564 52.1227 85.2564 52.656V58.064C85.2564 58.5973 85.0644 59.056 84.6804 59.44C84.307 59.8133 83.8484 60 83.3044 60H77.7364ZM77.7364 58.688H83.3044C83.475 58.688 83.619 58.6293 83.7364 58.512C83.8644 58.384 83.9284 58.2347 83.9284 58.064V52.656C83.9284 52.4853 83.8644 52.3413 83.7364 52.224C83.619 52.096 83.475 52.032 83.3044 52.032H77.7364C77.5657 52.032 77.4164 52.096 77.2884 52.224C77.171 52.3413 77.1124 52.4853 77.1124 52.656V58.064C77.1124 58.2347 77.171 58.384 77.2884 58.512C77.4164 58.6293 77.5657 58.688 77.7364 58.688ZM86.6921 60V50.72H94.2121C94.7455 50.72 95.1988 50.912 95.5721 51.296C95.9561 51.6693 96.1481 52.1227 96.1481 52.656V60H94.8361V52.656C94.8361 52.4853 94.7721 52.3413 94.6441 52.224C94.5268 52.096 94.3828 52.032 94.2121 52.032H88.6441C88.4735 52.032 88.3241 52.096 88.1961 52.224C88.0681 52.3413 88.0041 52.4853 88.0041 52.656V60H86.6921ZM99.7208 60C99.1874 60 98.7288 59.8133 98.3448 59.44C97.9714 59.056 97.7848 58.5973 97.7848 58.064V52.656C97.7848 52.1227 97.9714 51.6693 98.3448 51.296C98.7288 50.912 99.1874 50.72 99.7208 50.72H105.289C105.833 50.72 106.291 50.912 106.665 51.296C107.049 51.6693 107.241 52.1227 107.241 52.656V56.016H99.0968V58.064C99.0968 58.2347 99.1554 58.384 99.2728 58.512C99.4008 58.6293 99.5501 58.688 99.7208 58.688H107.241V60H99.7208ZM99.0968 54.704H105.913V52.656C105.913 52.4853 105.849 52.3413 105.721 52.224C105.603 52.096 105.459 52.032 105.289 52.032H99.7208C99.5501 52.032 99.4008 52.096 99.2728 52.224C99.1554 52.3413 99.0968 52.4853 99.0968 52.656V54.704ZM110.431 63.68V62.352H116.223C116.394 62.352 116.538 62.288 116.655 62.16C116.783 62.0427 116.847 61.8987 116.847 61.728V60H110.655C110.122 60 109.663 59.8133 109.279 59.44C108.906 59.056 108.719 58.5973 108.719 58.064V50.752H110.031V58.064C110.031 58.2347 110.09 58.384 110.207 58.512C110.335 58.6293 110.484 58.688 110.655 58.688H116.223C116.394 58.688 116.538 58.6293 116.655 58.512C116.783 58.384 116.847 58.2347 116.847 58.064V50.752H118.159V61.728C118.159 62.272 117.972 62.7307 117.599 63.104C117.226 63.488 116.767 63.68 116.223 63.68H110.431Z" fill="#E5E5E5"/>
<g filter="url(#filter0_i)">
<path fill-rule="evenodd" clip-rule="evenodd" d="M24.3165 21.6904C24.3165 20.8468 25.0014 20.1629 25.8459 20.1629H37.4689C38.3134 20.1629 38.9982 20.8468 38.9982 21.6904V52.9509L33.8655 60.4888L24.3165 48.3015V21.6904Z" fill="white"/>
<path fill-rule="evenodd" clip-rule="evenodd" d="M40.2217 9.77598C40.2217 8.93238 40.9065 8.24849 41.751 8.24849H53.374C54.2185 8.24849 54.9034 8.93238 54.9034 9.77598V29.5928L40.2217 51.154V9.77598Z" fill="white"/>
<path d="M56.1269 1.52749C56.1269 0.68389 56.8117 0 57.6562 0H69.2792C70.1237 0 70.8085 0.68389 70.8085 1.52749V38.608L67.2877 45.0611L56.1269 29.5863V1.52749Z" fill="white"/>
</g>
<path fill-rule="evenodd" clip-rule="evenodd" d="M16.3917 53.3096L0 75L16.3917 43.8391L33.8655 65.3062L55.4999 35.8961L67.2877 52.1823L85.7961 15.1222L83.808 13.9638L88.2789 10.8426L88.7496 17.0464L86.7969 16.0191C86.7969 16.0191 80.9344 30.4903 70.8086 52.1823C69.4337 55.1279 67.2877 59.725 67.2877 59.725L56.1269 42.9489L55.4999 42.0061L54.9034 42.9156L40.2217 65.3062L38.9982 67.1722L33.8655 75L24.3166 63.1466L16.3917 53.3096Z" fill="#12A454"/>
<path d="M16.3917 39.7149L0 75L16.3917 43.8391L33.8655 65.3062L55.4999 35.8961L67.2877 52.1823L85.7961 15.1222L83.808 13.9638L88.2789 10.8426L82.8904 13.9638L85.092 15.1222L70.8086 40.1355L67.2877 46.5886L56.1269 31.1138L55.4999 30.2444L54.9034 31.12L40.2217 52.6815L38.9982 54.4784L33.8655 62.0163L24.3166 49.829L16.3917 39.7149Z" fill="#12A454"/>
<path d="M16.3917 39.7149L0 75L16.3917 43.8391L33.8655 65.3062L55.4999 35.8961L67.2877 52.1823L85.7603 15.1248L83.7722 13.9664L88.2431 10.8452L82.8546 13.9664L85.0562 15.1248L70.8086 40.1355L67.2877 46.5886L56.1269 31.1138L55.4999 30.2444L54.9034 31.1203L40.2217 52.6815L38.9982 54.4784L33.8655 62.0163L24.3166 49.829L16.3917 39.7149Z" fill="url(#paint0_linear)"/>
<defs>
<filter id="filter0_i" x="24.3165" y="0" width="49.492" height="63.4888" filterUnits="userSpaceOnUse" color-interpolation-filters="sRGB">
<feFlood flood-opacity="0" result="BackgroundImageFix"/>
<feBlend mode="normal" in="SourceGraphic" in2="BackgroundImageFix" result="shape"/>
<feColorMatrix in="SourceAlpha" type="matrix" values="0 0 0 0 0 0 0 0 0 0 0 0 0 0 0 0 0 0 127 0" result="hardAlpha"/>
<feOffset dx="3" dy="3"/>
<feGaussianBlur stdDeviation="7.5"/>
<feComposite in2="hardAlpha" operator="arithmetic" k2="-1" k3="1"/>
<feColorMatrix type="matrix" values="0 0 0 0 0 0 0 0 0 0 0 0 0 0 0 0 0 0 0.25 0"/>
<feBlend mode="normal" in2="shape" result="effect1_innerShadow"/>
</filter>
<linearGradient id="paint0_linear" x1="46.5159" y1="-8.54016" x2="70.4474" y2="101.896" gradientUnits="userSpaceOnUse">
<stop stop-color="#188B4C" stop-opacity="0"/>
<stop offset="0.721111" stop-color="#188B4C"/>
</linearGradient>
</defs>
</svg>
