<svg width="22" height="32" viewBox="0 0 22 32" fill="none" xmlns="http://www.w3.org/2000/svg">
<path d="M19.6167 8.66667C19.2518 7.63127 18.5854 6.72877 17.7032 6.07532C16.821 5.42186 15.7635 5.04736 14.6667 5H7.33337C5.87468 5 4.47574 5.57946 3.44429 6.61091C2.41284 7.64236 1.83337 9.04131 1.83337 10.5C1.83337 11.9587 2.41284 13.3576 3.44429 14.3891C4.47574 15.4205 5.87468 16 7.33337 16H14.6667C16.1254 16 17.5243 16.5795 18.5558 17.6109C19.5872 18.6424 20.1667 20.0413 20.1667 21.5C20.1667 22.9587 19.5872 24.3576 18.5558 25.3891C17.5243 26.4205 16.1254 27 14.6667 27H7.33337C6.23657 26.9526 5.17904 26.5781 4.29688 25.9247C3.41472 25.2712 2.74829 24.3687 2.38337 23.3333M11 -0.5V5M11 27V32.5" stroke="white" stroke-width="2.75" stroke-linecap="round" stroke-linejoin="round"/>
</svg>
